<?xml version="1.0" encoding="utf-8"?>
<!-- Generator: Adobe Illustrator 25.2.0, SVG Export Plug-In . SVG Version: 6.00 Build 0)  -->
<svg version="1.1" id="Ebene_1" xmlns="http://www.w3.org/2000/svg" xmlns:xlink="http://www.w3.org/1999/xlink" x="0px" y="0px"
	 viewBox="0 0 2658.08 566.84" style="enable-background:new 0 0 2658.08 566.84;" xml:space="preserve">
<style type="text/css">
	.st0{fill:#3E3D40;}
	.st1{fill:#EB690B;}
	.st2{fill:#006DAF;}
</style>
<g>
	<path class="st0" d="M1699.42,344.34c0,21.71-13.65,36.84-40.13,36.84h-32.23v43.25h-17.6V307.34h49.83
		C1685.77,307.34,1699.42,322.47,1699.42,344.34z M1681.49,344.34c0-13.65-7.73-21.54-22.53-21.54h-31.91v42.92h31.91
		C1673.76,365.72,1681.49,357.99,1681.49,344.34z"/>
	<path class="st0" d="M1713.56,309.97h16.77v17.6h-16.77V309.97z M1713.72,339.57h16.45v84.86h-16.45V339.57z"/>
	<path class="st0" d="M1744.64,382c0-27.14,17.27-44.4,42.1-44.4c24.67,0,41.94,17.27,41.94,44.4s-17.27,44.4-41.94,44.4
		C1761.9,426.4,1744.64,409.14,1744.64,382z M1811.57,382c0-19.41-9.87-30.26-24.83-30.26c-15.13,0-25,10.85-25,30.26
		s9.87,30.26,25,30.26C1801.7,412.26,1811.57,401.41,1811.57,382z"/>
	<path class="st0" d="M1915.34,367.53v56.9h-16.45v-54.6c0-12.17-6.41-17.76-17.93-17.76c-10.03,0-21.38,7.4-21.38,24.5v47.86
		h-16.45v-84.86h15.79v12.66c5.59-8.39,14.64-14.64,26.64-14.64C1903.99,337.6,1915.34,348.12,1915.34,367.53z"/>
	<path class="st0" d="M1933.75,309.97h16.77v17.6h-16.77V309.97z M1933.92,339.57h16.45v84.86h-16.45V339.57z"/>
	<path class="st0" d="M2045.42,387.43h-63.97c1.48,17.27,10.69,25.16,24.34,25.16c11.02,0,18.09-5.59,21.05-14.14h16.61
		c-4.28,16.45-17.6,27.96-37.99,27.96c-24.01,0-40.62-17.1-40.62-44.4c0-26.64,16.12-44.4,40.29-44.4
		c25.66,0,40.29,19.57,40.29,45.06V387.43z M1981.61,374.44h46.87c-1.48-13.16-9.54-23.02-23.35-23.02
		C1992.79,351.41,1983.75,358.81,1981.61,374.44z"/>
	<path class="st0" d="M2107.08,338.42v15.62h-4.11c-16.28,0-26.48,8.06-26.48,24.34v46.05h-16.45v-84.86h15.79v15.13
		c4.6-9.21,12.99-16.45,26.48-16.45C2103.79,338.25,2105.27,338.25,2107.08,338.42z"/>
	<path class="st0" d="M2143.43,331.84v7.73h17.76v13.49h-17.76v71.38h-16.45v-71.38h-13.65v-13.49h13.65v-7.73
		c0-14.97,7.07-25,25.49-25c2.8,0,7.07,0.33,9.38,0.49v13.32h-7.4C2147.04,320.66,2143.43,324.6,2143.43,331.84z"/>
	<path class="st0" d="M2171.05,382c0-27.14,17.27-44.4,42.1-44.4c24.67,0,41.94,17.27,41.94,44.4s-17.27,44.4-41.94,44.4
		C2188.32,426.4,2171.05,409.14,2171.05,382z M2237.99,382c0-19.41-9.87-30.26-24.83-30.26c-15.13,0-25,10.85-25,30.26
		s9.87,30.26,25,30.26C2228.12,412.26,2237.99,401.41,2237.99,382z"/>
	<path class="st0" d="M2341.75,367.53v56.9h-16.45v-54.6c0-12.17-6.41-17.76-17.93-17.76c-10.03,0-21.38,7.4-21.38,24.5v47.86
		h-16.45v-84.86h15.79v12.66c5.59-8.39,14.64-14.64,26.64-14.64C2330.41,337.6,2341.75,348.12,2341.75,367.53z"/>
	<path class="st0" d="M2439.11,307.34v117.09h-15.79v-12.5c-6.08,9.04-15.62,14.47-28.12,14.47c-23.68,0-38.81-17.27-38.81-44.4
		s15.13-44.4,38.81-44.4c12.01,0,21.38,4.93,27.46,13.49v-43.75H2439.11z M2423.16,382c0-19.41-9.7-30.26-24.83-30.26
		c-15.13,0-24.83,11.51-24.83,30.92s9.7,29.6,24.83,29.6C2413.45,412.26,2423.16,401.41,2423.16,382z"/>
	<path class="st0" d="M2451.93,397.46h16.45c1.32,11.84,7.07,16.12,20.89,16.12c13.32,0,18.75-4.28,18.75-11.84
		c0-6.74-4.11-10.03-18.09-12.5l-8.72-1.64c-18.25-3.29-26.97-11.51-26.97-25.33c0-14.97,11.84-24.67,32.73-24.67
		c24.18,0,35.36,10.53,35.85,28.45h-15.95c-0.66-12.17-7.89-15.62-19.9-15.62c-10.69,0-16.45,4.28-16.45,11.35
		c0,7.24,5.76,10.03,15.79,12.01l8.88,1.48c20.72,3.95,29.44,11.18,29.44,25.33c0,16.61-13.32,25.98-35.52,25.98
		C2466.4,426.57,2453.08,417.69,2451.93,397.46z"/>
</g>
<polygon class="st1" points="1712.98,258.13 1712.98,190.56 1684,258.13 1667.91,258.13 1639.41,190.56 1639.41,258.13 
	1609.46,258.13 1609.46,141.09 1649.54,141.09 1677.09,207.18 1705.9,141.09 1742.92,141.09 1742.92,258.13 "/>
<g>
	<path class="st1" d="M1765.96,258.12V141.08h25.6c2.26,0,4.49,2.25,4.49,4.68v112.36H1765.96z"/>
	<path class="st1" d="M1879.14,190.73h38.04c3.01,0,4.71,2.45,4.71,5.34v60.47c-10.71,2.39-27.43,3.85-39.86,3.85
		c-43.65,0-66.66-20.78-66.66-60.93c0-35.81,23.01-60.62,61.38-60.62c16.89,0,31.69,4.51,41.24,10.95l-11.8,20.14
		c-8.23-3.69-19.34-6.27-27.2-6.27c-22.06,0-32.36,14.63-32.36,35.81c0,22.63,11.93,36.6,33.96,36.6c4.04,0,9.05-0.16,13.05-0.78
		v-20.63h-14.49V190.73z"/>
	<path class="st1" d="M1988.67,163.63h-14.72v29.35h14.72c8.8,0,15.71-4.69,15.71-15.81
		C2004.38,165.89,1997.46,163.63,1988.67,163.63 M2010.84,258.12l-13.88-32.22c-2.84-6.56-4.83-9.82-10.84-9.82h-12.17v42.03h-29.42
		V145.76c0-2.43,2.68-4.68,4.58-4.68h41.54c22.56,0,41.9,4.68,41.9,33.83c0,13.05-7.23,26.41-20.76,29.1
		c6.74,2.29,13.53,10.95,17.22,20.33l13.38,33.78H2010.84z"/>
	<path class="st1" d="M2107.42,163.63c-15.79,0-27.02,11.28-27.02,35.81c0,24.9,11.23,36.14,27.02,36.14
		c13.54,0,24.62-11.24,24.62-36.14C2132.04,174.91,2120.96,163.63,2107.42,163.63 M2107.42,260.38c-38.32,0-58.6-27.06-58.6-60.94
		c0-33.56,20.27-60.62,58.6-60.62c35.9,0,56.19,27.05,56.19,60.62C2163.61,233.32,2143.31,260.38,2107.42,260.38"/>
	<path class="st1" d="M2221.24,260.38c-19.78,0-38.16-7.09-46.36-12.72l13.34-23.66c7.44,4.5,21.92,11.43,35.27,11.43
		c7.55,0,17.1-1.46,17.1-9.85c0-7.87-10.66-10.29-24.66-14.29c-16.89-4.85-36.55-11.57-36.55-34.29c0-24.49,21.75-38.17,50.06-38.17
		c18.69,0,33.17,6.62,40.56,13.69l-16.24,18.5c-8.04-4.8-16.25-8.54-25.46-8.54c-11.09,0-17.37,4.21-17.37,10.33
		c0,6.07,8.05,9.17,18.18,12.22c17.9,5.52,42.34,11.18,42.34,34.62C2271.46,243.8,2252.16,260.38,2221.24,260.38"/>
</g>
<path class="st2" d="M1511.74,142.71L1511.74,142.71c-34.22-34.22-89.71-34.22-123.94,0l-41.23,41.23l61.97,61.97
	c38.55,37.54,34.04,85.08,33.04,90.99l70.2-70.2C1546.01,232.47,1545.96,176.93,1511.74,142.71"/>
<path class="st1" d="M1391.16,263.9l-113.73-113.73l0,0c-34.22-34.22-89.71-34.22-123.93,0c-34.22,34.22-34.22,89.71,0,123.93l0,0
	l175.7,175.71l61.96-61.97C1425.38,353.61,1425.38,298.12,1391.16,263.9"/>
<g>
	<path class="st0" d="M191.31,244.42v13.7h-57.87v-78.04h56.77v13.7h-40.55v16.88h36.5v13.92h-36.5v19.84H191.31z"/>
	<path class="st0" d="M234.93,200.36v14.14c-1.1-0.11-2.08-0.22-3.18-0.22c-9.43,0-14.03,5.37-14.03,16.33v27.51h-15.45v-56.56
		h15.13l-0.22,7.56c2.41-6.14,6.9-9.54,12.82-9.54C231.64,199.59,233.29,199.81,234.93,200.36z"/>
	<path class="st0" d="M325.35,220.31v37.81H309.9v-34.74c0-5.04-2.19-9.32-7.56-9.32c-6.03,0-10.08,5.37-10.08,13.81v30.25H276.8
		v-34.74c0-5.04-2.19-9.32-7.56-9.32c-6.03,0-10.08,5.37-10.08,13.81v30.25H243.7v-56.56h15.13l0.22,7.23
		c3.51-5.81,8.55-8.66,15.34-8.66c8.11,0,13.7,3.84,16.22,10.19c3.62-6.91,8.99-10.19,16.66-10.19
		C318.99,200.14,325.35,208.47,325.35,220.31z"/>
	<path class="st0" d="M335.54,230.06c0-17.1,11.95-29.92,28.94-29.92c16.99,0,28.94,12.82,28.94,29.92s-11.95,29.92-28.94,29.92
		C347.49,259.98,335.54,247.16,335.54,230.06z M345.19,180.08h15.45v14.03h-15.45V180.08z M378.5,230.06
		c0-10.85-5.37-17.87-14.03-17.87s-14.03,7.01-14.03,17.87s5.37,17.87,14.03,17.87S378.5,240.91,378.5,230.06z M368.31,180.08h15.45
		v14.03h-15.45V180.08z"/>
	<path class="st0" d="M455.44,201.57v57.21c0,14.91-9.97,23.02-26.96,23.02c-16.22,0-24.88-7.23-25.98-19.07h14.25
		c0.88,5.26,4.71,7.56,11.4,7.56c8.99,0,11.84-4.17,11.84-11.29v-7.78c-3.84,4.6-8.99,6.91-15.34,6.91
		c-14.14,0-24.22-11.84-24.22-29.37c0-17.97,10.3-28.61,24.22-28.61c7.23,0,12.82,2.85,16.55,8.44l0.55-7.01H455.44z M440.76,228.75
		c0-9.86-5.26-16.22-12.71-16.22c-7.45,0-12.71,6.25-12.71,16.22c0,10.08,5.26,16.22,12.71,16.22
		C435.5,244.97,440.76,238.61,440.76,228.75z"/>
	<path class="st0" d="M468.59,180.08h15.45v78.04h-15.45V180.08z"/>
	<path class="st0" d="M497.2,180.08h15.45v14.03H497.2V180.08z M497.2,201.57h15.45v56.56H497.2V201.57z"/>
	<path class="st0" d="M522.84,230.06c0-18.19,10.41-29.92,27.18-29.92c14.47,0,23.89,7.78,26.2,21.15h-15.13
		c-1.64-6.14-5.26-9.1-10.85-9.1c-7.89,0-12.5,6.36-12.5,17.87s4.6,17.87,12.5,17.87c5.48,0,9.1-3.18,10.85-9.32h15.13
		c-2.3,13.48-11.95,21.37-26.2,21.37C533.25,259.98,522.84,248.26,522.84,230.06z"/>
	<path class="st0" d="M636.06,220.2v37.92H620.6v-34.42c0-5.92-2.74-9.64-8.22-9.64c-6.58,0-11.07,5.37-11.07,13.81v30.25h-15.45
		v-78.04h15.45v29.04c3.73-6.03,8.99-8.99,16.22-8.99C629.26,200.14,636.06,207.92,636.06,220.2z"/>
	<path class="st0" d="M667.4,240.37c0,3.84,1.53,5.37,5.37,5.37h5.15v12.38h-10.08c-11.4,0-15.89-4.49-15.89-15.89v-29.59
		l-7.67,0.33v-11.4l7.67,0.22v-17.65h15.45v17.76l10.52-0.33v11.4l-10.52-0.33V240.37z"/>
	<path class="st0" d="M766.15,180.08v78.04h-13.7l-0.55-7.01c-3.84,5.92-9.43,8.88-16.44,8.88c-14.25,0-24.33-12.17-24.33-30.36
		c0-18.52,10.3-29.48,23.13-29.48c7.23,0,12.6,2.41,16.44,7.12v-27.18H766.15z M751.46,229.62c0-10.19-5.26-16.66-12.71-16.66
		c-7.45,0-12.71,6.36-12.71,16.66c0,10.41,5.26,16.77,12.71,16.77C746.2,246.39,751.46,239.82,751.46,229.62z"/>
	<path class="st0" d="M829.5,201.57v56.56h-15.13l-0.22-7.67c-3.73,6.14-9.1,9.1-16.33,9.1c-11.73,0-18.52-7.78-18.52-20.06v-37.92
		h15.45v34.42c0,5.92,2.74,9.64,8.22,9.64c6.58,0,11.07-5.37,11.07-13.81v-30.25H829.5z"/>
	<path class="st0" d="M875.31,200.36v14.14c-1.1-0.11-2.08-0.22-3.18-0.22c-9.43,0-14.03,5.37-14.03,16.33v27.51h-15.45v-56.56
		h15.13l-0.22,7.56c2.41-6.14,6.9-9.54,12.82-9.54C872.02,199.59,873.67,199.81,875.31,200.36z"/>
	<path class="st0" d="M881.12,230.06c0-18.19,10.41-29.92,27.18-29.92c14.47,0,23.89,7.78,26.2,21.15h-15.13
		c-1.64-6.14-5.26-9.1-10.85-9.1c-7.89,0-12.5,6.36-12.5,17.87s4.6,17.87,12.5,17.87c5.48,0,9.1-3.18,10.85-9.32h15.13
		c-2.3,13.48-11.95,21.37-26.2,21.37C891.53,259.98,881.12,248.26,881.12,230.06z"/>
	<path class="st0" d="M994.33,220.2v37.92h-15.45v-34.42c0-5.92-2.74-9.64-8.22-9.64c-6.58,0-11.07,5.37-11.07,13.81v30.25h-15.45
		v-78.04h15.45v29.04c3.73-6.03,8.99-8.99,16.22-8.99C987.54,200.14,994.33,207.92,994.33,220.2z"/>
</g>
</svg>
