<svg xmlns="http://www.w3.org/2000/svg" width="138" height="24" viewBox="0 0 138 24">
  <defs>
    <linearGradient id="a" x1="100%" x2="0%" y1="51.42%" y2="48.58%">
      <stop offset="0%" stop-color="#FFB400"/>
      <stop offset="100%" stop-color="#FF179B"/>
    </linearGradient>
  </defs>
  <path fill="url(#a)" d="M5.348,23 C5.668,23 5.956,22.712 5.956,22.392 L5.956,14.872 L9.316,14.872 C13.22,14.872 16.452,11.64 16.452,7.672 C16.452,3.8 13.22,0.6 9.284,0.6 L1.572,0.6 C1.22,0.6 0.964,0.888 0.964,1.208 L0.964,22.392 C0.964,22.712 1.22,23 1.572,23 L5.348,23 Z M8.996,10.2 L5.956,10.2 L5.956,5.304 L8.996,5.304 C10.372,5.304 11.524,6.328 11.524,7.672 C11.524,9.112 10.372,10.2 8.996,10.2 Z M36.068,23.32 C42.468,23.32 47.588,18.232 47.588,11.832 C47.588,5.432 42.468,0.28 36.068,0.28 C29.668,0.28 24.58,5.432 24.58,11.832 C24.58,18.232 29.668,23.32 36.068,23.32 Z M36.068,18.2 C32.58,18.2 29.7,15.32 29.7,11.832 C29.7,8.312 32.58,5.4 36.068,5.4 C39.588,5.4 42.468,8.312 42.468,11.832 C42.468,15.32 39.588,18.2 36.068,18.2 Z M63.94,23.32 C68.644,23.32 71.492,19.992 71.492,16.696 C71.492,12.344 67.524,10.392 65.028,9.4 C62.5,8.376 61.54,7.48 61.54,6.296 C61.54,5.432 62.404,4.664 63.556,4.664 C65.508,4.664 67.844,6.424 68.132,6.584 C68.42,6.808 68.996,6.52 69.22,6.168 L70.852,3.704 C70.98,3.48 71.044,2.904 70.66,2.68 C69.7,1.976 67.14,0.28 63.812,0.28 C58.884,0.28 56.42,3.48 56.42,6.648 C56.42,10.488 59.876,12.632 62.628,13.72 C64.804,14.584 65.924,15.608 65.924,16.952 C65.924,18.072 64.996,18.872 63.716,18.872 C61.604,18.872 59.3,17.176 59.172,17.112 C58.948,16.952 58.34,16.888 58.084,17.304 L56.58,19.96 C56.324,20.408 56.42,20.536 56.74,20.856 C57.476,21.592 59.78,23.32 63.94,23.32 Z M93.38,23.32 C93.54,23.32 93.828,23.16 93.924,22.968 L99.3,12.6 L99.364,12.6 L100.804,22.488 C100.836,22.744 101.124,23 101.412,23 L105.188,23 C105.572,23 105.86,22.712 105.796,22.296 L102.18,0.792 C102.148,0.504 101.86,0.28 101.604,0.28 L101.092,0.28 C100.932,0.28 100.644,0.408 100.548,0.6 L93.124,14.424 L93.06,14.424 L85.636,0.6 C85.54,0.408 85.252,0.28 85.092,0.28 L84.58,0.28 C84.324,0.28 84.036,0.504 84.004,0.792 L80.388,22.296 C80.324,22.712 80.612,23 80.996,23 L84.772,23 C85.092,23 85.348,22.744 85.38,22.488 L86.788,12.6 L86.852,12.6 L92.26,22.968 C92.356,23.16 92.612,23.32 92.804,23.32 L93.38,23.32 Z M126.148,23.32 C132.548,23.32 137.668,18.232 137.668,11.832 C137.668,5.432 132.548,0.28 126.148,0.28 C119.748,0.28 114.66,5.432 114.66,11.832 C114.66,18.232 119.748,23.32 126.148,23.32 Z M126.148,18.2 C122.66,18.2 119.78,15.32 119.78,11.832 C119.78,8.312 122.66,5.4 126.148,5.4 C129.668,5.4 132.548,8.312 132.548,11.832 C132.548,15.32 129.668,18.2 126.148,18.2 Z"/>
</svg>
